<svg width="10" height="10" viewBox="0 0 10 10" fill="none" xmlns="http://www.w3.org/2000/svg">
<path fill-rule="evenodd" clip-rule="evenodd" d="M4.99997 8.74997C4.88914 8.74997 4.78331 8.70622 4.70497 8.62747L1.46872 5.38581C0.62039 4.53581 0.62039 3.15289 1.46872 2.30289C1.87831 1.89289 2.42539 1.66664 3.00831 1.66664C3.59122 1.66664 4.13831 1.89289 4.54789 2.30289L4.99997 2.75581L5.45164 2.30331C5.86164 1.89289 6.40872 1.66664 6.99164 1.66664C7.57456 1.66664 8.12164 1.89289 8.53122 2.30289C9.37956 3.15289 9.37956 4.53581 8.53164 5.38581L5.29497 8.62789C5.21664 8.70622 5.11081 8.74997 4.99997 8.74997Z" fill="#E24444"/>
<path fill-rule="evenodd" clip-rule="evenodd" d="M4.99997 8.74997C4.88914 8.74997 4.78331 8.70622 4.70497 8.62747L1.46872 5.38581C0.62039 4.53581 0.62039 3.15289 1.46872 2.30289C1.87831 1.89289 2.42539 1.66664 3.00831 1.66664C3.59122 1.66664 4.13831 1.89289 4.54789 2.30289L4.99997 2.75581L5.45164 2.30331C5.86164 1.89289 6.40872 1.66664 6.99164 1.66664C7.57456 1.66664 8.12164 1.89289 8.53122 2.30289C9.37956 3.15289 9.37956 4.53581 8.53164 5.38581L5.29497 8.62789C5.21664 8.70622 5.11081 8.74997 4.99997 8.74997Z" fill="#E24444"/>
</svg>
