<svg width="10" height="10" viewBox="0 0 10 10" fill="none" xmlns="http://www.w3.org/2000/svg">
<path fill-rule="evenodd" clip-rule="evenodd" d="M4.99999 4.37498C4.65541 4.37498 4.37499 4.6554 4.37499 4.99998C4.37499 5.34456 4.65541 5.62498 4.99999 5.62498C5.34458 5.62498 5.62499 5.34456 5.62499 4.99998C5.62499 4.6554 5.34458 4.37498 4.99999 4.37498ZM4.99999 6.45831C4.19583 6.45831 3.54166 5.80415 3.54166 4.99998C3.54166 4.19581 4.19583 3.54165 4.99999 3.54165C5.80416 3.54165 6.45833 4.19581 6.45833 4.99998C6.45833 5.80415 5.80416 6.45831 4.99999 6.45831ZM9.11166 4.79247C8.84541 4.32914 7.3775 2.00664 4.88708 2.08456C2.58416 2.14331 1.24416 4.17247 0.888328 4.79247C0.814995 4.92122 0.814995 5.07872 0.888328 5.20747C1.15083 5.66456 2.56749 7.91664 5.01041 7.91664C5.04416 7.91664 5.07833 7.91622 5.11291 7.91539C7.41583 7.85664 8.75583 5.82747 9.11166 5.20747C9.185 5.07872 9.185 4.92122 9.11166 4.79247Z" fill="#FFA10B"/>
<path fill-rule="evenodd" clip-rule="evenodd" d="M4.99999 4.37498C4.65541 4.37498 4.37499 4.6554 4.37499 4.99998C4.37499 5.34456 4.65541 5.62498 4.99999 5.62498C5.34458 5.62498 5.62499 5.34456 5.62499 4.99998C5.62499 4.6554 5.34458 4.37498 4.99999 4.37498ZM4.99999 6.45831C4.19583 6.45831 3.54166 5.80415 3.54166 4.99998C3.54166 4.19581 4.19583 3.54165 4.99999 3.54165C5.80416 3.54165 6.45833 4.19581 6.45833 4.99998C6.45833 5.80415 5.80416 6.45831 4.99999 6.45831ZM9.11166 4.79247C8.84541 4.32914 7.3775 2.00664 4.88708 2.08456C2.58416 2.14331 1.24416 4.17247 0.888328 4.79247C0.814995 4.92122 0.814995 5.07872 0.888328 5.20747C1.15083 5.66456 2.56749 7.91664 5.01041 7.91664C5.04416 7.91664 5.07833 7.91622 5.11291 7.91539C7.41583 7.85664 8.75583 5.82747 9.11166 5.20747C9.185 5.07872 9.185 4.92122 9.11166 4.79247Z" fill="#FFA10B"/>
</svg>
