<svg width="36" height="36" viewBox="0 0 36 36" fill="none" xmlns="http://www.w3.org/2000/svg">
<path id="Mask" fill-rule="evenodd" clip-rule="evenodd" d="M17.9833 10.9386L9.94032 17.4111C9.29532 17.9301 8.35182 17.8281 7.83132 17.1831C7.31232 16.5366 7.41432 15.5931 8.05932 15.0726L17.0593 7.83063C17.6158 7.38363 18.4108 7.38813 18.9598 7.84863L27.9598 15.3486C28.5973 15.8781 28.6828 16.8231 28.1518 17.4606C27.8548 17.8161 27.4288 18.0006 26.9998 18.0006C26.6608 18.0006 26.3203 17.8851 26.0398 17.6526L17.9833 10.9386ZM17.0596 18.3314C17.6161 17.8829 18.4111 17.8889 18.9601 18.3479L27.9601 25.8479C28.5961 26.3789 28.6816 27.3239 28.1521 27.9599C27.8551 28.3169 27.4291 28.4999 26.9986 28.4999C26.6611 28.4999 26.3206 28.3859 26.0401 28.1519L17.9836 21.4394L9.94063 27.9104C9.29563 28.4309 8.35213 28.3289 7.83163 27.6824C7.31113 27.0374 7.41463 26.0939 8.05963 25.5734L17.0596 18.3314Z" fill="currentColor"/>
<path id="Mask_2" fill-rule="evenodd" clip-rule="evenodd" d="M17.9833 10.9386L9.94032 17.4111C9.29532 17.9301 8.35182 17.8281 7.83132 17.1831C7.31232 16.5366 7.41432 15.5931 8.05932 15.0726L17.0593 7.83063C17.6158 7.38363 18.4108 7.38813 18.9598 7.84863L27.9598 15.3486C28.5973 15.8781 28.6828 16.8231 28.1518 17.4606C27.8548 17.8161 27.4288 18.0006 26.9998 18.0006C26.6608 18.0006 26.3203 17.8851 26.0398 17.6526L17.9833 10.9386ZM17.0596 18.3314C17.6161 17.8829 18.4111 17.8889 18.9601 18.3479L27.9601 25.8479C28.5961 26.3789 28.6816 27.3239 28.1521 27.9599C27.8551 28.3169 27.4291 28.4999 26.9986 28.4999C26.6611 28.4999 26.3206 28.3859 26.0401 28.1519L17.9836 21.4394L9.94063 27.9104C9.29563 28.4309 8.35213 28.3289 7.83163 27.6824C7.31113 27.0374 7.41463 26.0939 8.05963 25.5734L17.0596 18.3314Z" fill="currentColor"/>
</svg>
