<svg class="svg-icon" width="24px" height="24px" fill="currentColor"
     viewBox="0 0 1024 1024" version="1.1" xmlns="http://www.w3.org/2000/svg">
    <path d="M673.1776 480.4608l270.165333-263.543467C950.9888 224.494933 955.733333 235.008 955.733333 246.6816l0 530.602667c0 11.025067-4.3008 20.957867-11.229867 28.433067L673.1776 480.4608zM82.1248 215.688533C89.4976 208.9984 99.157333 204.8 109.8752 204.8l804.283733 0c10.717867 0 20.3776 4.1984 27.7504 10.888533L512 553.8816 82.1248 215.688533zM79.496533 805.751467C72.567467 798.276267 68.266667 788.343467 68.266667 777.284267L68.266667 246.6816c0-11.6736 4.744533-22.186667 12.3904-29.7984l270.165333 263.543467L79.496533 805.751467zM512 637.678933l112.810667-110.045867 317.8496 280.029867C935.2192 814.762667 925.218133 819.2 914.1248 819.2L109.8752 819.2c-11.0592 0-21.060267-4.437333-28.535467-11.537067l317.8496-280.029867L512 637.678933z"/>
</svg>
