<svg class="svg-icon" width="30" height="30" viewBox="0 0 16 16" fill="none" xmlns="http://www.w3.org/2000/svg">
    <path fill="currentColor" fill-rule="evenodd" clip-rule="evenodd" d="M6.5858 8.00001L2.64646 4.06067C2.4512 3.86541 2.4512 3.54883 2.64646 3.35357L3.35357 2.64646C3.54883 2.4512 3.86541 2.4512 4.06067 2.64646L8.00001 6.5858L11.9394 2.64646C12.1346 2.4512 12.4512 2.4512 12.6465 2.64646L13.3536 3.35357C13.5488 3.54883 13.5488 3.86541 13.3536 4.06067L9.41423 8.00001L13.3536 11.9394C13.5488 12.1346 13.5488 12.4512 13.3536 12.6465L12.6465 13.3536C12.4512 13.5488 12.1346 13.5488 11.9394 13.3536L8.00001 9.41423L4.06067 13.3536C3.86541 13.5488 3.54883 13.5488 3.35357 13.3536L2.64646 12.6465C2.4512 12.4512 2.4512 12.1346 2.64646 11.9394L6.5858 8.00001Z" />
</svg>
