<svg width="160" height="160" id="Layer_1" xmlns="http://www.w3.org/2000/svg" viewBox="0 0 122.88 103.39">
    <path fill="currentColor"
          d="M3,18.68H6.29V10.53a3,3,0,0,1,.86-2.09,3,3,0,0,1,2.11-.88h3.23V3a3,3,0,0,1,3-3H51.71a3,3,0,0,1,3,3V7.56h48.16a3,3,0,0,1,2.1.87,3,3,0,0,1,.87,2.1v8.14h3.34a3,3,0,0,1,3,3,3.8,3.8,0,0,1-.06.58l-3.19,23.44A31.52,31.52,0,1,1,63.82,87.2H14a7.55,7.55,0,0,1-2.91-.58A7.84,7.84,0,0,1,8.57,85a8.33,8.33,0,0,1-1.69-2.44,9.24,9.24,0,0,1-.81-2.92L0,22A3,3,0,0,1,2.66,18.7l.31,0ZM98.39,58.31h-.16l-4.08,4.08-2.8,2.8-6.87-6.88h0a1.6,1.6,0,0,0-2.23,0l-4.32,4.32a1.58,1.58,0,0,0,0,2.22l6.88,6.88-6.88,6.87h0a1.59,1.59,0,0,0,0,2.23l4.33,4.32a1.58,1.58,0,0,0,2.22,0l6.87-6.88,1.91,1.91,4.23,4.23.74.74a1.58,1.58,0,0,0,2.22,0L104.78,81a1.59,1.59,0,0,0,.14-2.06h-.14l-4.08-4.08-2.8-2.79L99.81,70,104,65.74l.74-.74a1.58,1.58,0,0,0,0-2.22l-4.33-4.33a1.59,1.59,0,0,0-2.06-.14Zm4.9-15.61,2.45-18.06H6.27L12,79a3.45,3.45,0,0,0,.26,1,2.66,2.66,0,0,0,.52.78,1.91,1.91,0,0,0,.56.38h0a1.71,1.71,0,0,0,.62.11h47.3a31.53,31.53,0,0,1,42-38.56ZM12.23,13.51v5.15l87.64-.93V13.51H51.71a3,3,0,0,1-3-3V6H18.43v4.59a3,3,0,0,1-3,3Z"/>
</svg>
