<svg width="16" height="16" viewBox="0 0 16 16" fill="none" xmlns="http://www.w3.org/2000/svg">
<path fill-rule="evenodd" clip-rule="evenodd" d="M12.6666 7.33333H8.66663V3.33333C8.66663 2.96466 8.36796 2.66666 7.99996 2.66666C7.63196 2.66666 7.33329 2.96466 7.33329 3.33333V7.33333H3.33329C2.96529 7.33333 2.66663 7.63133 2.66663 8C2.66663 8.36866 2.96529 8.66666 3.33329 8.66666H7.33329V12.6667C7.33329 13.0353 7.63196 13.3333 7.99996 13.3333C8.36796 13.3333 8.66663 13.0353 8.66663 12.6667V8.66666H12.6666C13.0346 8.66666 13.3333 8.36866 13.3333 8C13.3333 7.63133 13.0346 7.33333 12.6666 7.33333Z" fill="white"/>
</svg>
