<svg width="30" height="30" viewBox="0 0 30 30" fill="none" xmlns="http://www.w3.org/2000/svg">
<path d="M11.5203 8.71655C12.0976 8.71655 12.6304 8.76096 13.1189 8.89418C13.6073 8.98299 14.007 9.16061 14.3622 9.38264C14.7175 9.60467 14.9839 9.91551 15.1615 10.3152C15.3392 10.7148 15.428 11.2033 15.428 11.7361C15.428 12.3578 15.2948 12.8907 14.9839 13.2903C14.7175 13.69 14.2734 14.0452 13.7406 14.3117C14.4955 14.5337 15.0727 14.9334 15.428 15.4662C15.7832 15.9991 16.0053 16.6652 16.0053 17.4201C16.0053 18.0418 15.872 18.5746 15.65 19.0187C15.428 19.4627 15.0727 19.8624 14.6731 20.1288C14.2734 20.3953 13.785 20.6173 13.2521 20.7505C12.7192 20.8837 12.1864 20.9725 11.6535 20.9725H5.70312V8.71655H11.5203ZM11.165 13.69C11.6535 13.69 12.0531 13.5568 12.364 13.3347C12.6748 13.1127 12.808 12.7131 12.808 12.2246C12.808 11.9582 12.7636 11.6917 12.6748 11.5141C12.586 11.3365 12.4528 11.2033 12.2752 11.0701C12.0976 10.9812 11.9199 10.8924 11.6979 10.848C11.4759 10.8036 11.2538 10.8036 10.9874 10.8036H8.41187V13.69H11.165ZM11.2982 18.9299C11.5647 18.9299 11.8311 18.8855 12.0531 18.8411C12.2752 18.7967 12.4972 18.7078 12.6748 18.5746C12.8524 18.4414 12.9857 18.3082 13.1189 18.0862C13.2077 17.8641 13.2965 17.5977 13.2965 17.2869C13.2965 16.6652 13.1189 16.2211 12.7636 15.9103C12.4084 15.6438 11.9199 15.5106 11.3427 15.5106H8.41187V18.9299H11.2982ZM19.8686 18.8855C20.2238 19.2407 20.7567 19.4183 21.4672 19.4183C21.9556 19.4183 22.3997 19.2851 22.7549 19.0631C23.1102 18.7967 23.3322 18.5302 23.421 18.2638H25.5969C25.2416 19.3295 24.7088 20.0844 23.9983 20.5729C23.2878 21.0169 22.4441 21.2834 21.4228 21.2834C20.7123 21.2834 20.0906 21.1502 19.5133 20.9281C18.936 20.7061 18.492 20.3953 18.0923 19.9512C17.6927 19.5516 17.3818 19.0631 17.2042 18.4858C16.9822 17.9085 16.8934 17.2869 16.8934 16.5764C16.8934 15.9103 16.9822 15.2886 17.2042 14.7113C17.4262 14.1341 17.7371 13.6456 18.1367 13.2015C18.5364 12.8019 19.0248 12.4466 19.5577 12.2246C20.135 12.0026 20.7123 11.8694 21.4228 11.8694C22.1777 11.8694 22.8437 12.0026 23.421 12.3134C23.9983 12.6243 24.4423 12.9795 24.7976 13.5124C25.1528 14.0008 25.4193 14.5781 25.5969 15.1998C25.6857 15.8215 25.7301 16.4432 25.6857 17.1536H19.2469C19.2469 17.8641 19.5133 18.5302 19.8686 18.8855ZM22.6661 14.2229C22.3553 13.912 21.8668 13.7344 21.2895 13.7344C20.8899 13.7344 20.579 13.8232 20.3126 13.9564C20.0462 14.0896 19.8686 14.2673 19.6909 14.4449C19.5133 14.6225 19.4245 14.8445 19.3801 15.0666C19.3357 15.2886 19.2913 15.4662 19.2913 15.6438H23.2878C23.199 14.9778 22.977 14.5337 22.6661 14.2229ZM18.7584 9.56026H23.7318V10.7592H18.7584V9.56026Z" fill="white"/>
</svg>
