<svg width="30" height="30" viewBox="0 0 30 30" fill="none" xmlns="http://www.w3.org/2000/svg">
<path d="M15 24.9883C9.48438 24.9883 5 20.5117 5 15.0039C5 9.48828 9.48438 5.01172 15 5.01172C20.5156 5.01172 25 9.48828 25 14.9961C25 20.5039 20.5156 24.9883 15 24.9883ZM23.4297 16.3633C23.1406 16.2695 20.7891 15.5742 18.1094 15.9961C19.2266 19.0586 19.6797 21.5586 19.7656 22.0742C21.6875 20.7852 23.0547 18.7383 23.4297 16.3633ZM18.3359 22.8633C18.2109 22.1133 17.7109 19.5039 16.5156 16.3945C16.5 16.4023 16.4766 16.4102 16.4609 16.4102C11.6406 18.0898 9.91406 21.4258 9.75781 21.7383C11.2031 22.8633 13.0234 23.5352 15 23.5352C16.1797 23.543 17.3125 23.3008 18.3359 22.8633ZM8.65625 20.7148C8.85156 20.3867 11.1953 16.5117 15.6016 15.082C15.7109 15.043 15.8281 15.0117 15.9375 14.9805C15.7266 14.4961 15.4922 14.0117 15.2422 13.5352C10.9766 14.8086 6.83594 14.7539 6.46094 14.7461C6.46094 14.832 6.45312 14.918 6.45312 15.0039C6.46094 17.1992 7.28906 19.1992 8.65625 20.7148ZM6.64062 13.2617C7.02344 13.2695 10.5391 13.2852 14.5391 12.2227C13.125 9.70703 11.5938 7.59766 11.375 7.29297C8.97656 8.41797 7.19531 10.6211 6.64062 13.2617ZM13 6.71484C13.2344 7.02734 14.7891 9.13672 16.1875 11.707C19.2266 10.5664 20.5078 8.84766 20.6641 8.62891C19.1562 7.29297 17.1719 6.48047 15 6.48047C14.3125 6.48047 13.6406 6.56641 13 6.71484ZM21.6094 9.61328C21.4297 9.85547 20 11.6914 16.8438 12.9805C17.0391 13.3867 17.2344 13.8008 17.4141 14.2148C17.4766 14.3633 17.5391 14.5117 17.6016 14.6523C20.4453 14.293 23.2656 14.8711 23.5469 14.9258C23.5234 12.918 22.8047 11.0664 21.6094 9.61328Z" fill="white"/>
</svg>
